<?xml version="1.0" encoding="UTF-8" standalone="no"?>
<!-- Created with Inkscape (http://www.inkscape.org/) -->

<svg
   width="175mm"
   height="175mm"
   viewBox="0 0 175 175"
   version="1.1"
   id="svg5"
   inkscape:version="1.1.1 (3bf5ae0d25, 2021-09-20)"
   sodipodi:docname="Create.svg"
   xmlns:inkscape="http://www.inkscape.org/namespaces/inkscape"
   xmlns:sodipodi="http://sodipodi.sourceforge.net/DTD/sodipodi-0.dtd"
   xmlns:xlink="http://www.w3.org/1999/xlink"
   xmlns="http://www.w3.org/2000/svg"
   xmlns:svg="http://www.w3.org/2000/svg">
  <sodipodi:namedview
     id="namedview7"
     pagecolor="#505050"
     bordercolor="#eeeeee"
     borderopacity="1"
     inkscape:pageshadow="0"
     inkscape:pageopacity="0"
     inkscape:pagecheckerboard="0"
     inkscape:document-units="mm"
     showgrid="true"
     fit-margin-top="0"
     fit-margin-left="0"
     fit-margin-right="0"
     fit-margin-bottom="0"
     inkscape:zoom="0.79370951"
     inkscape:cx="-113.39161"
     inkscape:cy="302.37763"
     inkscape:window-width="2560"
     inkscape:window-height="1412"
     inkscape:window-x="0"
     inkscape:window-y="28"
     inkscape:window-maximized="1"
     inkscape:current-layer="layer3">
    <inkscape:grid
       type="xygrid"
       id="grid18405" />
  </sodipodi:namedview>
  <defs
     id="defs2">
    <linearGradient
       inkscape:collect="always"
       id="linearGradient20039">
      <stop
         style="stop-color:#b000e1;stop-opacity:1"
         offset="0"
         id="stop20035" />
      <stop
         style="stop-color:#e10087;stop-opacity:1"
         offset="1"
         id="stop20037" />
    </linearGradient>
    <linearGradient
       inkscape:collect="always"
       xlink:href="#linearGradient20039"
       id="linearGradient20041"
       x1="210"
       y1="440"
       x2="790"
       y2="-70"
       gradientUnits="userSpaceOnUse" />
  </defs>
  <g
     inkscape:groupmode="layer"
     id="layer3"
     inkscape:label="Layer 3"
     transform="translate(38.805793,24.833874)">
    <path
       id="rect18064"
       style="opacity:0.99;fill:url(#linearGradient20041);fill-opacity:1;stroke-width:3.77953;stroke-linecap:round"
       transform="matrix(0.26458333,0,0,0.26458333,-38.805793,-24.833874)"
       d="m 336.70898,235 -23.60937,35 h 46.66601 z M 396,325 362.98828,274.89062 h -53.1875 L 276,325 m 0,0.10938 H 396 M 396.01953,330 h -120 l 0.68945,180 h 120 z M 283.82735,62.085574 l -4.80046,29.549341 -4.80048,29.549335 -11.06521,3.53721 c -6.08708,1.94682 -16.64699,6.53028 -23.46839,10.18666 -6.82143,3.65637 -13.2912,6.11211 -14.3727,5.45508 -1.08151,-0.65706 -12.04743,-8.65023 -24.36987,-17.76063 -12.32246,-9.11037 -22.97824,-16.56621 -23.68084,-16.56621 -0.70274,0 -16.81797,15.5607 -35.81408,34.57374 l -34.53929,34.56805 16.5203,24.80053 16.52603,24.80055 -5.79386,12.89698 c -3.18571,7.09356 -7.5185,17.63388 -9.62967,23.42244 -3.41743,9.3704 -4.42001,10.62599 -9.14159,11.43271 -5.13184,0.87681 -47.930609,5.88909 -50.548566,5.92019 -0.711621,0.008 -1.090731,21.85828 -0.844079,48.55604 l 0.447878,48.53875 27.706077,4.62249 c 15.23867,2.54004 28.6334,4.9739 29.76755,5.40915 1.13416,0.43525 2.91145,4.16499 3.95063,8.29173 1.03912,4.12678 5.40704,14.52811 9.70434,23.11237 l 7.81512,15.60726 -16.39396,24.60533 -16.39398,24.61102 35.07908,35.10781 35.08482,35.11351 24.67422,-16.48585 24.67424,-16.48014 22.60128,9.73308 c 12.43168,5.35468 23.17049,10.36906 23.86454,11.13982 0.69396,0.77083 3.34543,13.95005 5.89151,29.291 2.546,15.34095 4.97913,28.47632 5.40914,29.18759 0.43001,0.71127 22.98028,1.09039 50.11214,0.84408 l 49.33122,-0.44791 5.01293,-29.92256 5.01296,-29.92256 8.0678,-1.93515 c 4.43728,-1.06451 14.72956,-5.28522 22.87691,-9.37701 8.14731,-4.09176 15.47187,-7.44023 16.27334,-7.44185 1.21081,-0.003 20.85973,13.98652 44.26089,31.51317 l 5.15075,3.85296 35.03885,-35.06755 35.04465,-35.07337 -16.58921,-22.76204 c -9.1251,-12.52038 -17.19931,-23.74902 -17.93862,-24.94983 -0.81744,-1.32858 1.2912,-7.61705 5.38616,-16.06095 3.70126,-7.63185 8.06295,-18.16931 9.69283,-23.41669 l 2.963,-9.53778 24.6799,-4.89234 24.68572,-4.8866 0.44833,-48.53878 c 0.24718,-26.69745 -0.0302,-48.54454 -0.61418,-48.54454 -1.53003,0 -51.54028,-8.32378 -55.85431,-9.29661 -2.2018,-0.49657 -4.06813,-2.63893 -4.76606,-5.47806 -0.63016,-2.56495 -4.97027,-13.13965 -9.64675,-23.49708 l -8.50426,-18.82868 18.15679,-24.86944 18.15103,-24.8637 -34.45307,-34.48764 c -18.95015,-18.96703 -35.03115,-34.48763 -35.73375,-34.48763 -0.70263,0 -11.35839,7.45584 -23.6808,16.56621 -12.32245,9.1104 -23.29954,17.10787 -24.39285,17.77213 -1.09331,0.66422 -7.1781,-1.48413 -13.52288,-4.77751 -6.34493,-3.29333 -16.86257,-7.83085 -23.37088,-10.08325 l -11.8353,-4.09419 -3.22138,-29.669935 -3.22709,-29.664186 h -48.52733 z m 51.02462,94.296336 C 429.99994,157.76813 510.00001,235 509.48987,330.13592 508.95438,429.99987 430.00001,504.93477 333.45142,504.96792 240,505.00001 158.69092,424.99992 159.35181,329.07856 160,235 240,155 334.85197,156.38191 Z"
       sodipodi:nodetypes="cccccccccccccccccccssssccccccsccccsscccccccccssssccccscccccccscccccssccccccssscccccccsssss" />
  </g>
</svg>
