<?xml version="1.0" encoding="UTF-8" standalone="no"?>
<!-- Created with Inkscape (http://www.inkscape.org/) -->

<svg
   width="175mm"
   height="175mm"
   viewBox="0 0 175 175"
   version="1.1"
   id="svg5"
   xmlns:xlink="http://www.w3.org/1999/xlink"
   xmlns="http://www.w3.org/2000/svg"
   xmlns:svg="http://www.w3.org/2000/svg">
  <defs
     id="defs2">
    <linearGradient
       id="linearGradient1923">
      <stop
         style="stop-color:#af00df;stop-opacity:1"
         offset="0"
         id="stop1919" />
      <stop
         style="stop-color:#e00099;stop-opacity:1"
         offset="1"
         id="stop1921" />
    </linearGradient>
    <linearGradient
       xlink:href="#linearGradient1923"
       id="linearGradient8071"
       gradientUnits="userSpaceOnUse"
       gradientTransform="translate(-1.1832598,3.7800344)"
       x1="-2.9657047"
       y1="116.05851"
       x2="103.81506"
       y2="37.322319" />
  </defs>
  <g
     id="g8069"
     transform="matrix(2.0991329,0,0,2.0991329,64.081586,-137.41266)">
    <circle
       style="opacity:0.99;fill:#212121;stroke:#780098;stroke-width:7.265;stroke-linecap:round;stroke-miterlimit:4;stroke-dasharray:none;stroke-opacity:1"
       id="circle8061"
       cx="9.5983601"
       cy="109.13011"
       r="33.640862" />
    <g
       id="g8067">
      <path
         style="color:#000000;opacity:0.99;fill:#212121;stroke-width:7.265;stroke-linecap:round;-inkscape-stroke:none"
         d="M 46.35489,105.16098 A 33.640862,33.640862 0 0 1 12.714028,138.80184 33.640862,33.640862 0 0 1 -20.926834,105.16098 33.640862,33.640862 0 0 1 12.714028,71.520117 33.640862,33.640862 0 0 1 46.35489,105.16098 Z"
         id="path8063" />
      <path
         id="path8065"
         style="fill:url(#linearGradient8071);fill-opacity:1;stroke-width:0.0459201"
         d="m -0.58536023,125.29041 c -0.29484,-0.0932 -0.45449997,-0.19249 -0.64002997,-0.39786 -0.22718,-0.25145 -0.3341,-0.50186 -0.39814,-0.93242 -0.0673,-0.45257 -0.12109,-0.0912 1.14795997,-7.71258 l 1.04620903,-6.28301 -4.710819,-4.56826 c -2.59095,-2.51253 -4.84092,-4.71593 -4.99994,-4.89644 -0.15902,-0.18051 -0.36566,-0.48305 -0.4592,-0.672313 -0.15461,-0.31284 -0.16988,-0.37774 -0.16791,-0.71387 0.002,-0.30597 0.0228,-0.40949 0.1217,-0.60025 0.24475,-0.472 0.85038,-0.88513 1.54046,-1.05084 0.17063,-0.041 3.23421,-0.49831 6.80794,-1.01631 3.573739,-0.51799 6.514179,-0.94683 6.534319,-0.95296 0.0201,-0.006 1.20336,-2.375452 2.62937,-5.265152 2.8077602,-5.68968 2.9663152,-5.97912 3.6495652,-6.66237 0.264196,-0.2642 0.448363,-0.40157 0.714659,-0.53308 0.331675,-0.16379 0.388352,-0.17716 0.751162,-0.17716 0.339005,0 0.428909,0.0179 0.660506,0.13164 0.375239,0.18425 0.811696,0.61094 1.153291,1.12748 0.192271,0.29074 1.204571,2.29323 2.985107,5.90502 l 2.694173,5.465092 6.299545,0.93622 c 3.464749,0.51492 6.460931,0.97442 6.658184,1.0211 1.27413,0.30154 1.963805,1.16601 1.712581,2.14664 -0.109438,0.427173 -0.353505,0.856093 -0.729193,1.281443 -0.182481,0.20661 -2.331034,2.33123 -4.77456,4.72137 -2.443526,2.39016 -4.442774,4.37755 -4.442774,4.41643 0,0.0389 0.50627,3.01787 1.125044,6.61998 0.618774,3.60211 1.125044,6.63344 1.125044,6.73628 0,1.2134 -0.974926,2.07622 -2.146389,1.89958 -0.371562,-0.056 0.300357,0.28239 -6.733042,-3.39115 -3.103134,-1.62076 -5.664514,-2.94684 -5.691958,-2.94684 -0.0461,0 -1.553269,0.78778 -8.5494152,4.46867 -3.02142,1.58966 -3.43606,1.79542 -3.80954,1.89049 -0.32716,0.0833 -0.84963903,0.0858 -1.10390903,0.005 z M 12.714028,67.887544 c -20.5424622,10e-7 -37.273437,16.730975 -37.273437,37.273426 2e-6,20.54246 16.7309758,37.27344 37.273437,37.27344 20.542462,0 37.273436,-16.73098 37.273438,-37.27344 0,-20.542452 -16.730974,-37.273426 -37.273438,-37.273426 z m 0,7.265625 c 16.61617,0 30.009766,13.391643 30.009766,30.007801 -2e-6,16.61617 -13.393597,30.00782 -30.009766,30.00782 -16.6161672,-1e-5 -30.00781,-13.39165 -30.007812,-30.00782 0,-16.616158 13.3916428,-30.007801 30.007812,-30.007801 z" />
    </g>
  </g>
</svg>
