<?xml version="1.0" encoding="UTF-8" standalone="no"?>
<!-- Created with Inkscape (http://www.inkscape.org/) -->

<svg
   width="175mm"
   height="175mm"
   viewBox="0 0 175 175"
   version="1.1"
   id="svg5"
   xmlns:xlink="http://www.w3.org/1999/xlink"
   xmlns="http://www.w3.org/2000/svg"
   xmlns:svg="http://www.w3.org/2000/svg">
  <defs
     id="defs2">
    <linearGradient
       id="linearGradient14668">
      <stop
         style="stop-color:#b000e0;stop-opacity:1;"
         offset="0"
         id="stop15005" />
      <stop
         style="stop-color:#df00c9;stop-opacity:0.97647059"
         offset="1"
         id="stop15007" />
    </linearGradient>
    <linearGradient
       xlink:href="#linearGradient14668"
       id="linearGradient14670"
       x1="-4.4913654"
       y1="82.519485"
       x2="113.5165"
       y2="9.2043266"
       gradientUnits="userSpaceOnUse" />
  </defs>
  <g
     id="layer3"
     transform="translate(38.805793,24.833874)">
    <g
       id="g12744"
       style="fill:url(#linearGradient14670);fill-opacity:1;stroke-width:1;stroke-miterlimit:4;stroke-dasharray:none">
      <path
         style="color:#000000;fill:url(#linearGradient14670);stroke-linecap:round;fill-opacity:1.0;stroke-width:1;stroke-miterlimit:4;stroke-dasharray:none"
         d="M 50.482422,1.2226562 C 26.351503,1.5926864 12.592026,12.443671 5.6855469,24.013672 c -3.4532395,5.785 -5.27534791,11.6835 -6.17187503,16.574219 -0.89652707,4.890719 -0.98711737,8.456239 -0.47851562,10.96289 0.66403642,3.272706 1.43921238,5.55067 1.47070312,7.84375 0.0314908,2.29308 -0.5057176716,4.92286 -3.08007817,9.292969 -3.2278138,5.479382 -2.9424267,10.410685 -1.1367187,13.433594 1.0353435,1.733253 2.2748243,2.724802 3.27734375,3.365234 0.55085764,1.116644 4.25342725,8.780345 4.15429685,16.998052 -0.071018,5.88715 2.4737404,9.84232 5.2988282,11.61718 2.8250877,1.77487 5.7597657,1.62696 5.7597657,1.62696 l -0.166016,0.004 c 0,0 3.911473,0.0198 8.152344,0.16602 2.120435,0.0731 4.32181,0.17824 6.107422,0.32226 1.785611,0.14403 3.454246,0.50531 3.18164,0.40625 -0.698431,-0.2538 0.03217,0.0642 0.640625,0.88477 0.608458,0.82059 1.31866,2.00289 1.951172,3.17773 1.265025,2.3497 2.226563,4.625 2.226563,4.625 l 2.365234,5.625 3.660156,-4.88086 c 0,0 2.273303,-3.09408 8.0625,-7.15625 5.789198,-4.06216 14.907359,-8.86196 28.173829,-11.57421 l 2.951171,-0.60352 -0.15625,-3.00781 c -0.453157,-8.751005 2.390902,-13.856648 5.591797,-21.087894 3.200896,-7.231245 6.484751,-16.311617 5.484375,-30.86914 a 3.5,3.5 0 0 0 -3.730468,-3.251954 3.5,3.5 0 0 0 -3.251954,3.732422 c 0.918731,13.369429 -1.834618,20.626246 -4.902343,27.556641 -2.758551,6.23193 -5.829052,12.56598 -6.058594,21.365235 -12.756767,2.99411 -22.058086,7.75548 -28.121094,12.00977 -2.604539,1.82755 -4.276508,3.40151 -5.816406,4.85156 -0.168073,-0.32741 -0.132685,-0.31473 -0.314453,-0.65235 -0.728397,-1.35294 -1.552887,-2.76251 -2.492188,-4.02929 -0.9393,-1.26679 -1.769079,-2.53038 -3.873047,-3.29492 -1.678143,-0.60981 -3.040735,-0.64392 -5.009765,-0.80274 -1.96903,-0.15882 -4.24475,-0.2665 -6.427735,-0.3418 -4.365968,-0.15058 -8.359374,-0.16992 -8.359374,-0.16992 h -0.08203 l -0.08398,0.002 c 0,0 -0.830057,0.0113 -1.740234,-0.56055 -0.910178,-0.57182 -2.071368,-1.46841 -2.021485,-5.60352 C 10.855961,91.357738 5.4335937,81.431641 5.4335937,81.431641 L 4.8457031,80.322266 3.6855469,79.839844 c 0,0 -0.8442144,-0.400396 -1.3867188,-1.308594 C 1.7563238,77.623052 1.0932233,76.252921 3.4570313,72.240234 6.4742954,67.118273 7.5558549,62.93743 7.5058594,59.296875 7.4558638,55.65632 6.4479004,52.875859 5.8964844,50.158203 5.7973613,49.669674 5.6267134,46.059505 6.3984375,41.849609 7.1701616,37.639713 8.7659237,32.51226 11.697266,27.601562 17.559949,17.780168 28.442202,8.5602912 50.587891,8.2207031 A 3.5,3.5 0 0 0 54.035156,4.6679687 3.5,3.5 0 0 0 50.482422,1.2226562 Z"
         id="path7896" />
      <path
         style="color:#000000;fill:url(#linearGradient14670);stroke-linecap:round;fill-opacity:1.0;stroke-width:1;stroke-miterlimit:4;stroke-dasharray:none"
         d="m 16.410156,56.542969 a 2,2 0 0 0 -2.451172,1.414062 2,2 0 0 0 1.416016,2.451172 c 0,0 1.229531,0.396114 1.65625,0.515625 a 2,2 0 0 0 -0.673828,0.542969 2,2 0 0 0 1.773437,2.203125 c 2.025496,0.219238 3.5196,0.336044 4.632813,0.36914 1.113213,0.0331 1.654367,0.159432 2.71289,-0.289062 0.264631,-0.112123 0.625698,-0.282921 0.970704,-0.757813 0.345005,-0.474891 0.474751,-1.306387 0.326171,-1.832031 -0.297158,-1.051287 -0.761051,-1.180151 -1.060546,-1.384765 -0.598991,-0.40923 -1.170583,-0.635086 -1.88086,-0.91211 -2.841108,-1.108093 -7.421875,-2.320312 -7.421875,-2.320312 z"
         id="path8647" />
      <path
         id="path8994"
         style="fill:url(#linearGradient14670);fill-opacity:1.0;stroke:none;stroke-width:1;stroke-opacity:1;stroke-miterlimit:4;stroke-dasharray:none"
         d="m 72.141531,-3.6125219 -0.448666,2.761769 -0.448667,2.761769 -1.034187,0.330598 c -0.568916,0.181955 -1.555877,0.610339 -2.193425,0.952075 -0.637551,0.341735 -1.242235,0.571256 -1.343315,0.509848 -0.101082,-0.06141 -1.125989,-0.808476 -2.277681,-1.659961 -1.151693,-0.851482 -2.147614,-1.548327 -2.213281,-1.548327 -0.06568,0 -1.571858,1.454349 -3.34729,3.231364 l -3.228145,3.230833 1.544036,2.31793 1.544572,2.3179339 -0.541511,1.20539 c -0.297746,0.662985 -0.702702,1.648115 -0.900018,2.18913 -0.319403,0.875786 -0.413107,0.993137 -0.8544,1.068535 -0.479637,0.08195 -4.479737,0.550412 -4.724419,0.553319 -0.06651,7.89e-4 -0.101943,2.04294 -0.07889,4.538191 l 0.04186,4.536577 2.589492,0.432032 c 1.424251,0.237399 2.676163,0.464875 2.782164,0.505554 0.106002,0.04068 0.272113,0.389271 0.369237,0.774969 0.09712,0.3857 0.505359,1.357841 0.906997,2.160149 l 0.730424,1.458702 -1.532228,2.299688 -1.53223,2.300221 3.278595,3.281279 3.279131,3.281813 2.306126,-1.540816 2.306127,-1.54028 2.112383,0.909678 c 1.161902,0.500469 2.165583,0.969122 2.230451,1.041164 0.06486,0.07204 0.312674,1.303808 0.550638,2.737619 0.237957,1.433813 0.465364,2.661482 0.505554,2.72796 0.04019,0.06648 2.147805,0.101913 4.683629,0.07889 l 4.610642,-0.04186 0.468525,-2.796652 0.468525,-2.796653 0.754039,-0.180864 c 0.414722,-0.09949 1.376669,-0.493972 2.138144,-0.876402 0.761475,-0.38243 1.446049,-0.695384 1.520957,-0.695541 0.113163,-3.19e-4 1.949611,1.307226 4.136752,2.945315 l 0.481405,0.360115 3.274837,-3.277523 3.27538,-3.278059 -1.55048,-2.127409 c -0.85286,-1.170192 -1.6075,-2.219655 -1.6766,-2.331886 -0.0764,-0.124172 0.12068,-0.711912 0.50341,-1.501102 0.34593,-0.713297 0.75359,-1.698158 0.90592,-2.188593 l 0.27693,-0.891431 2.30666,-0.457252 2.3072,-0.456718 0.0419,-4.536577 c 0.0231,-2.495223 -0.003,-4.537117 -0.0574,-4.537117 -0.143,0 -4.81711,-0.777964 -5.22031,-0.868889 -0.20579,-0.04641 -0.38022,-0.246642 -0.44545,-0.511995 -0.0589,-0.239728 -0.46454,-1.228071 -0.90162,-2.196107 l -0.79483,-1.759784 1.69699,-2.3243719 1.69645,-2.323835 -3.22009,-3.223317 c -1.771139,-1.772715 -3.274114,-3.223316 -3.339781,-3.223316 -0.06567,0 -1.061589,0.696845 -2.213278,1.548327 -1.151695,0.851485 -2.177647,1.598952 -2.27983,1.661036 -0.102182,0.06208 -0.670885,-0.138712 -1.263887,-0.44652 -0.593016,-0.307805 -1.576027,-0.731895 -2.184312,-0.942411 l -1.106163,-0.382655 -0.301078,-2.77304 -0.301616,-2.772503 h -4.535507 z m 4.638013,10.597874 A 14.556519,14.556519 0 0 1 91.33599,21.541799 14.556519,14.556519 0 0 1 76.779544,36.098245 14.556519,14.556519 0 0 1 62.223098,21.541799 14.556519,14.556519 0 0 1 76.779544,6.9853521 Z" />
      <path
         id="path9457"
         style="fill:url(#linearGradient14670);fill-opacity:1.0;stroke:none;stroke-width:1;stroke-opacity:1;stroke-miterlimit:4;stroke-dasharray:none"
         d="m 38.248034,25.19541 -0.310101,1.908828 -0.310101,1.908828 -0.71479,0.228497 c -0.393213,0.12576 -1.075363,0.421843 -1.516011,0.658037 -0.440651,0.236194 -0.858585,0.39483 -0.928448,0.352387 -0.06986,-0.04244 -0.77824,-0.558787 -1.574245,-1.1473 -0.796005,-0.588512 -1.484348,-1.070144 -1.529734,-1.070144 -0.0454,0 -1.086408,1.00519 -2.313518,2.233394 l -2.231169,2.233027 1.067178,1.602063 1.067549,1.602067 -0.374272,0.833119 c -0.20579,0.45823 -0.48568,1.139113 -0.622057,1.513042 -0.22076,0.60531 -0.285524,0.686418 -0.590529,0.73853 -0.331506,0.05664 -3.096221,0.380424 -3.265336,0.382433 -0.04597,5.45e-4 -0.07046,1.412001 -0.05452,3.136622 l 0.02893,3.135507 1.789756,0.298604 c 0.984388,0.164081 1.849661,0.321304 1.922925,0.349419 0.07326,0.02812 0.188074,0.269049 0.255202,0.535629 0.06713,0.266581 0.349285,0.938487 0.626881,1.493012 l 0.504841,1.008198 -1.059017,1.589456 -1.059018,1.589824 2.266038,2.267893 2.266409,2.268262 1.593905,-1.064952 1.593906,-1.064582 1.459998,0.628734 c 0.803062,0.345905 1.496767,0.66982 1.541602,0.719612 0.04483,0.04979 0.216108,0.901142 0.380579,1.892137 0.164467,0.990996 0.321642,1.839514 0.34942,1.885461 0.02778,0.04595 1.48448,0.07044 3.237143,0.05452 l 3.186698,-0.02893 0.323826,-1.932938 0.323827,-1.932938 0.521162,-0.125006 c 0.28664,-0.06876 0.951501,-0.341415 1.477803,-0.605736 0.526302,-0.26432 0.999453,-0.480622 1.051227,-0.480731 0.07821,-2.2e-4 1.347496,0.903504 2.859163,2.035688 l 0.332728,0.248898 2.263441,-2.265297 2.263817,-2.265668 -1.071632,-1.470383 c -0.589464,-0.808792 -1.111042,-1.53414 -1.158802,-1.61171 -0.0528,-0.08582 0.08341,-0.492046 0.347938,-1.037503 0.239093,-0.493004 0.520852,-1.173702 0.626137,-1.512671 l 0.191403,-0.616123 1.594275,-0.316035 1.594647,-0.315666 0.02896,-3.135507 c 0.01597,-1.724602 -0.0021,-3.13588 -0.03967,-3.13588 -0.09884,0 -3.3294,-0.537698 -3.608077,-0.600542 -0.142234,-0.03208 -0.262793,-0.17047 -0.307877,-0.353872 -0.04071,-0.16569 -0.321073,-0.848795 -0.623165,-1.517864 l -0.549356,-1.216295 1.172894,-1.606516 1.172521,-1.606145 -2.225602,-2.227832 C 52.271573,29.03714 51.232774,28.03454 51.187388,28.03454 c -0.04539,0 -0.733729,0.481633 -1.529732,1.070144 -0.796007,0.588514 -1.505106,1.105134 -1.575731,1.148044 -0.07062,0.04291 -0.46369,-0.09587 -0.87355,-0.308617 -0.409869,-0.212743 -1.089289,-0.505858 -1.509712,-0.651358 L 44.93412,29.028279 44.726027,27.111661 44.517561,25.195414 h -3.134767 z m 3.205615,7.324841 A 10.060904,10.060904 0 0 1 51.514502,42.581105 10.060904,10.060904 0 0 1 41.453649,52.641959 10.060904,10.060904 0 0 1 31.392796,42.581105 10.060904,10.060904 0 0 1 41.453649,32.520251 Z" />
    </g>
  </g>
</svg>
